<?xml version="1.0" standalone="no"?>
<!DOCTYPE svg PUBLIC "-//W3C//DTD SVG 20010904//EN"
 "http://www.w3.org/TR/2001/REC-SVG-20010904/DTD/svg10.dtd">
<svg version="1.0" xmlns="http://www.w3.org/2000/svg"
 width="256.000000pt" height="256.000000pt" viewBox="0 0 256.000000 256.000000"
 preserveAspectRatio="xMidYMid meet">

<g transform="translate(0.000000,256.000000) scale(0.100000,-0.100000)"
fill="#000000" stroke="none">
<path d="M825 2434 c-354 -79 -629 -358 -700 -713 -23 -112 -16 -315 14 -416
92 -313 339 -553 651 -637 114 -30 319 -32 430 -4 175 45 318 125 436 248 163
167 248 359 260 588 24 422 -246 798 -661 921 -96 28 -329 35 -430 13z"/>
<path d="M1842 971 c-66 -98 -169 -196 -302 -289 -2 -1 94 -101 215 -222 142
-142 236 -228 269 -246 122 -66 277 -10 331 120 24 56 21 145 -6 198 -13 26
-106 128 -242 266 -122 122 -224 222 -227 222 -3 0 -20 -22 -38 -49z"/>
</g>
</svg>
