<?xml version="1.0" standalone="no"?>
<!DOCTYPE svg PUBLIC "-//W3C//DTD SVG 20010904//EN"
 "http://www.w3.org/TR/2001/REC-SVG-20010904/DTD/svg10.dtd">
<svg version="1.0" xmlns="http://www.w3.org/2000/svg"
 width="256.000000pt" height="256.000000pt" viewBox="0 0 256.000000 256.000000"
 preserveAspectRatio="xMidYMid meet">

<g transform="translate(0.000000,256.000000) scale(0.100000,-0.100000)"
fill="#000000" stroke="none">
<path d="M1165 2472 c-63 -22 -907 -484 -956 -523 -48 -38 -93 -110 -114 -180
-14 -50 -15 -135 -13 -740 l3 -684 27 -57 c37 -79 98 -142 177 -181 l66 -32
904 -3 c801 -2 911 -1 959 13 102 30 182 100 229 200 l28 60 0 710 0 710 -33
67 c-21 42 -50 83 -80 109 -55 48 -900 511 -976 534 -66 20 -159 18 -221 -3z
m-232 -1592 c15 -12 33 -43 43 -74 32 -101 120 -190 214 -216 19 -5 64 -10
100 -10 140 0 275 109 304 246 13 58 66 85 115 59 38 -19 48 -55 32 -114 -55
-209 -242 -351 -461 -351 -183 0 -349 101 -427 261 -54 110 -56 176 -5 203 37
21 55 20 85 -4z"/>
</g>
</svg>
