<?xml version="1.0" standalone="no"?>
<!DOCTYPE svg PUBLIC "-//W3C//DTD SVG 20010904//EN"
 "http://www.w3.org/TR/2001/REC-SVG-20010904/DTD/svg10.dtd">
<svg version="1.0" xmlns="http://www.w3.org/2000/svg"
 width="256.000000pt" height="256.000000pt" viewBox="0 0 256.000000 256.000000"
 preserveAspectRatio="xMidYMid meet">

<g transform="translate(0.000000,256.000000) scale(0.100000,-0.100000)"
fill="#000000" stroke="none">
<path d="M565 2404 c-88 -19 -213 -79 -287 -139 -237 -188 -339 -563 -237
-869 67 -199 207 -388 463 -627 132 -122 659 -576 700 -603 38 -24 114 -24
152 0 41 27 568 481 700 603 377 351 520 617 501 931 -11 174 -70 333 -172
462 -132 168 -363 270 -575 254 -190 -14 -337 -87 -469 -233 l-61 -68 -61 68
c-96 106 -208 178 -334 213 -78 22 -238 26 -320 8z"/>
</g>
</svg>
