<?xml version="1.0" standalone="no"?>
<!DOCTYPE svg PUBLIC "-//W3C//DTD SVG 20010904//EN"
 "http://www.w3.org/TR/2001/REC-SVG-20010904/DTD/svg10.dtd">
<svg version="1.0" xmlns="http://www.w3.org/2000/svg"
 width="256.000000pt" height="256.000000pt" viewBox="0 0 256.000000 256.000000"
 preserveAspectRatio="xMidYMid meet">

<g transform="translate(0.000000,256.000000) scale(0.100000,-0.100000)"
fill="#000000" stroke="none">
<path d="M1154 2545 c-101 -22 -200 -78 -279 -159 -307 -312 -168 -828 258
-951 75 -22 219 -22 294 0 255 74 422 294 423 555 0 153 -54 284 -165 396
-141 144 -335 202 -531 159z"/>
<path d="M1106 1265 c-85 -16 -207 -56 -271 -87 -84 -42 -203 -129 -272 -200
-185 -189 -285 -425 -287 -673 -1 -95 2 -116 21 -151 28 -53 74 -99 127 -127
l41 -22 815 0 815 0 41 22 c134 72 176 193 140 402 -71 410 -361 723 -761 822
-108 27 -304 34 -409 14z"/>
</g>
</svg>
