<svg width="45" height="45" viewBox="0 0 45 45" fill="none" xmlns="http://www.w3.org/2000/svg">
<circle r="20.5" transform="matrix(-1 0 0 1 22.5 22.5)" fill="#00B6E6"/>
<circle r="21.25" transform="matrix(-1 0 0 1 22.5 22.5)" stroke="white" stroke-opacity="0.2" stroke-width="1.5"/>
<path d="M15.5 26V29.5C15.5 29.7321 15.5922 29.9546 15.7563 30.1187C15.9204 30.2828 16.1429 30.375 16.375 30.375H29.5C29.7321 30.375 29.9546 30.2828 30.1187 30.1187C30.2828 29.9546 30.375 29.7321 30.375 29.5V19C30.375 18.7679 30.2828 18.5454 30.1187 18.3813C29.9546 18.2172 29.7321 18.125 29.5 18.125H16.375C16.1429 18.125 15.9204 18.2172 15.7563 18.3813C15.5922 18.5454 15.5 18.7679 15.5 19V22.5" stroke="white" stroke-width="1.75" stroke-linecap="round" stroke-linejoin="round"/>
<path d="M15.4997 22.5H18.1247C18.6079 22.5 18.9997 22.8918 18.9997 23.375V25.125C18.9997 25.6082 18.6079 26 18.1247 26H15.4997C15.0164 26 14.6247 25.6082 14.6247 25.125V23.375C14.6247 22.8918 15.0164 22.5 15.4997 22.5Z" stroke="white" stroke-width="1.75" stroke-linecap="round" stroke-linejoin="round"/>
<path d="M27.75 18.1249L20.6362 14.9662C20.4312 14.8745 20.1988 14.8651 19.987 14.94C19.7753 15.0149 19.6005 15.1684 19.4987 15.3687L18.125 18.1249" stroke="white" stroke-width="1.75" stroke-linecap="round" stroke-linejoin="round"/>
</svg>
