<svg width="24" height="23" viewBox="0 0 24 23" fill="none" xmlns="http://www.w3.org/2000/svg">
<path d="M9.1898 17.9249C9.20012 17.0949 8.96412 16.2805 8.51162 15.5846C8.05912 14.8887 7.41043 14.3426 6.6476 14.0153C5.88477 13.688 5.04205 13.5942 4.22593 13.7458C3.40981 13.8974 2.65694 14.2876 2.06254 14.867C1.46813 15.4464 1.05884 16.189 0.886444 17.001C0.714048 17.813 0.786285 18.6579 1.09399 19.4288C1.4017 20.1997 1.93105 20.8622 2.61517 21.3323C3.29929 21.8024 4.10744 22.0591 4.93745 22.07H4.99334C6.09915 22.0757 7.16202 21.6424 7.94876 20.8653C8.7355 20.0882 9.18183 19.0307 9.1898 17.9249ZM7.22117 17.9249C7.22777 18.3671 7.10307 18.8012 6.86282 19.1724C6.62257 19.5436 6.27757 19.8352 5.87153 20.0103C5.46548 20.1853 5.01664 20.236 4.58179 20.1558C4.14695 20.0756 3.74565 19.8683 3.42872 19.56C3.11178 19.2516 2.89344 18.8562 2.80134 18.4237C2.70924 17.9912 2.74753 17.5412 2.91133 17.1305C3.07514 16.7197 3.35712 16.3669 3.72157 16.1165C4.08603 15.8661 4.51656 15.7295 4.9587 15.7239H4.98996C5.57748 15.7203 6.14239 15.9502 6.56055 16.3629C6.97871 16.7756 7.21591 17.3374 7.22005 17.9249H7.22117ZM22.1212 18.897C22.379 18.897 22.6262 18.7946 22.8085 18.6123C22.9908 18.43 23.0932 18.1827 23.0932 17.9249C23.0932 17.6671 22.9908 17.4199 22.8085 17.2376C22.6262 17.0553 22.379 16.9529 22.1212 16.9529H14.0544C13.7966 16.9529 13.5494 17.0553 13.3671 17.2376C13.1848 17.4199 13.0824 17.6671 13.0824 17.9249C13.0824 18.1827 13.1848 18.43 13.3671 18.6123C13.5494 18.7946 13.7966 18.897 14.0544 18.897H22.1212ZM23.1044 5.00811C23.1146 4.17575 22.877 3.35915 22.422 2.6621C21.9669 1.96506 21.3149 1.41906 20.5488 1.09349C19.7827 0.767921 18.937 0.677487 18.1194 0.833692C17.3017 0.989897 16.549 1.38568 15.9569 1.97074C15.3647 2.5558 14.9599 3.3037 14.7938 4.1194C14.6278 4.93511 14.708 5.78176 15.0243 6.55175C15.3406 7.32174 15.8787 7.9803 16.5702 8.44372C17.2617 8.90713 18.0754 9.15448 18.9079 9.15432C20.0139 9.15997 21.077 8.72656 21.8637 7.94921C22.6505 7.17187 23.0967 6.11411 23.1044 5.00811ZM21.1357 5.00811C21.1423 5.45024 21.0176 5.88438 20.7773 6.25559C20.5371 6.62679 20.1921 6.91839 19.7861 7.09344C19.38 7.2685 18.9312 7.31914 18.4963 7.23898C18.0615 7.15882 17.6602 6.95146 17.3432 6.64313C17.0263 6.3348 16.808 5.93937 16.7159 5.5069C16.6238 5.07442 16.662 4.62434 16.8259 4.21363C16.9897 3.80292 17.2716 3.45005 17.6361 3.19967C18.0005 2.94929 18.4311 2.81266 18.8733 2.80708H18.9045C19.1956 2.80502 19.4843 2.86032 19.754 2.96982C20.0237 3.07932 20.2692 3.24088 20.4765 3.44527C20.6838 3.64965 20.8489 3.89286 20.9621 4.16102C21.0754 4.42918 21.1348 4.71701 21.1369 5.00811H21.1357ZM9.85124 5.98015C9.97882 5.98448 10.106 5.96364 10.2255 5.91882C10.345 5.87399 10.4546 5.80607 10.5478 5.71892C10.6411 5.63178 10.7163 5.5271 10.7691 5.4109C10.8219 5.29469 10.8513 5.16921 10.8557 5.04163C10.86 4.91406 10.8392 4.78689 10.7944 4.66737C10.7495 4.54785 10.6816 4.43833 10.5944 4.34506C10.5073 4.25179 10.4026 4.17659 10.2864 4.12377C10.1702 4.07095 10.0447 4.04154 9.91715 4.03721H1.78005C1.65247 4.03289 1.52529 4.05372 1.40577 4.09854C1.28625 4.14336 1.17672 4.2113 1.08345 4.29845C0.990185 4.38559 0.914988 4.49025 0.862167 4.60646C0.809347 4.72266 0.779959 4.84815 0.775631 4.97572C0.771303 5.1033 0.792114 5.23048 0.836937 5.35C0.881758 5.46952 0.949696 5.57904 1.03684 5.67231C1.12399 5.76558 1.22866 5.84076 1.34487 5.89358C1.46108 5.9464 1.58656 5.97583 1.71414 5.98015H9.85124Z" fill="#3F2D20"/>
</svg>
