<svg width="23" height="23" viewBox="0 0 23 23" fill="none" xmlns="http://www.w3.org/2000/svg">
<path d="M1.95938 22.8277L2.05213 22.7495L5.5358 19.3608C7.4442 20.8495 9.79671 21.6552 12.2171 21.649C14.2715 21.598 16.2653 20.9421 17.9489 19.7635C19.6325 18.585 20.931 16.936 21.682 15.023C22.4329 13.11 22.603 11.0181 22.1708 9.00894C21.7387 6.99979 20.7235 5.16273 19.2524 3.72771C17.7813 2.29269 15.9197 1.32346 13.9004 0.94132C11.8811 0.559181 9.79403 0.781118 7.9003 1.57935C6.00656 2.37758 4.39032 3.71664 3.25389 5.42894C2.11747 7.14123 1.51133 9.1507 1.51136 11.2058C1.51431 13.8312 2.52309 16.3558 4.33025 18.2603L0.887936 21.6121C0.737621 21.758 0.651316 21.9576 0.647964 22.167C0.644613 22.3765 0.724466 22.5787 0.870035 22.7294L0.887936 22.7472C1.0293 22.8841 1.21418 22.967 1.4104 22.9815C1.60661 22.996 1.8017 22.9412 1.96164 22.8266L1.95938 22.8277ZM21.2693 11.208C21.3135 13.0086 20.8199 14.7815 19.8515 16.3002C18.8831 17.8189 17.484 19.0143 15.8328 19.7339C14.1816 20.4535 12.3534 20.6644 10.5818 20.3398C8.81014 20.0152 7.17551 19.1697 5.88672 17.9115C4.59794 16.6533 3.71355 15.0394 3.34653 13.276C2.97952 11.5127 3.14656 9.67994 3.82631 8.01199C4.50605 6.34404 5.66761 4.91662 7.16262 3.9121C8.65763 2.90758 10.4182 2.37159 12.2193 2.37261C14.59 2.34784 16.8738 3.26394 18.5702 4.92011C20.2665 6.57629 21.2372 8.83745 21.2693 11.208Z" fill="#3F2D20"/>
</svg>
