<svg width="79" height="12" viewBox="0 0 79 12" fill="none" xmlns="http://www.w3.org/2000/svg">
<path d="M6 9.64644L9.70782 12L8.727 7.56044L12 4.57528L7.68514 4.18544L6 0L4.31456 4.18544L0 4.57528L3.27303 7.56044L2.29191 12L6 9.64644Z" fill="#FF9B00"/>
<path d="M23 9.64644L26.7078 12L25.727 7.56044L29 4.57528L24.6851 4.18544L23 0L21.3146 4.18544L17 4.57528L20.273 7.56044L19.2919 12L23 9.64644Z" fill="#FF9B00"/>
<path d="M39 9.64644L42.7078 12L41.727 7.56044L45 4.57528L40.6851 4.18544L39 0L37.3146 4.18544L33 4.57528L36.273 7.56044L35.2919 12L39 9.64644Z" fill="#FF9B00"/>
<path d="M56 9.64644L59.7078 12L58.727 7.56044L62 4.57528L57.6851 4.18544L56 0L54.3146 4.18544L50 4.57528L53.273 7.56044L52.2919 12L56 9.64644Z" fill="#FF9B00"/>
<path d="M73 9.64644L76.7078 12L75.727 7.56044L79 4.57528L74.6851 4.18544L73 0L71.3146 4.18544L67 4.57528L70.273 7.56044L69.2919 12L73 9.64644Z" fill="#FF9B00"/>
</svg>
