<svg width="16" height="22" viewBox="0 0 16 22" fill="none" xmlns="http://www.w3.org/2000/svg">
<path fill-rule="evenodd" clip-rule="evenodd" d="M0 4C0 1.79086 1.79086 0 4 0H12C14.2091 0 16 1.79086 16 4V18C16 20.2091 14.2091 22 12 22H4C1.79086 22 0 20.2091 0 18V4ZM4 2C2.89543 2 2 2.89543 2 4V18C2 19.1046 2.89543 20 4 20H12C13.1046 20 14 19.1046 14 18V4C14 2.89543 13.1046 2 12 2H4ZM9 17C9 17.5523 8.55229 18 8 18C7.44772 18 7 17.5523 7 17C7 16.4477 7.44772 16 8 16C8.55229 16 9 16.4477 9 17ZM7 4C6.44772 4 6 4.44772 6 5C6 5.55228 6.44772 6 7 6H9C9.55228 6 10 5.55228 10 5C10 4.44772 9.55228 4 9 4H7Z" fill="black"/>
</svg>
