<svg width="32" height="32" viewBox="0 0 32 32" fill="none" xmlns="http://www.w3.org/2000/svg">
<rect width="32" height="32" rx="12" fill="#FBF0D9"/>
<path fill-rule="evenodd" clip-rule="evenodd" d="M16 24C20.4183 24 24 20.4183 24 16C24 11.5817 20.4183 8 16 8C11.5817 8 8 11.5817 8 16C8 20.4183 11.5817 24 16 24ZM16 26C21.5228 26 26 21.5228 26 16C26 10.4772 21.5228 6 16 6C10.4772 6 6 10.4772 6 16C6 21.5228 10.4772 26 16 26Z" fill="black"/>
<path d="M16.7122 19.75V18.8242C17.8517 18.6458 18.5 17.9153 18.5 17.1339C18.5 16.3695 17.9794 15.707 16.6631 15.4522L15.8084 15.2908C15.4253 15.2143 15.2289 15.036 15.2289 14.8066C15.2289 14.5348 15.5039 14.2545 16.054 14.2545C16.8301 14.2545 16.9971 14.6962 17.056 14.9595L18.4214 14.6452C18.2839 14.0677 17.7927 13.3967 16.7122 13.1928V12.25H15.5825V13.1673C14.5511 13.3202 13.7259 13.9742 13.7259 14.9255C13.7259 15.7324 14.4037 16.31 15.5039 16.5394L16.3782 16.7177C16.7711 16.7942 16.9872 16.9555 16.9872 17.2019C16.9872 17.5331 16.6336 17.737 16.1424 17.737C15.2976 17.737 14.9047 17.2953 14.8556 16.8027L13.5 17.066C13.5688 17.7625 14.1974 18.6458 15.5825 18.8412V19.75H16.7122Z" fill="#FFBD2F"/>
</svg>
